<svg width="24" height="24" viewBox="0 0 24 24" fill="none" xmlns="http://www.w3.org/2000/svg">
<path d="M12 24C18.6274 24 24 18.6274 24 12C24 5.37258 18.6274 0 12 0C5.37258 0 0 5.37258 0 12C0 18.6274 5.37258 24 12 24Z" fill="#6F3FAA"/>
<path d="M18.9313 8.10663V8.0889C18.7704 7.43708 18.3504 6.76345 17.7994 6.19618C17.1558 5.53072 16.3363 5.00845 15.5535 4.83936H15.5372C13.203 4.39209 10.805 4.39209 8.47081 4.83936H8.45445C7.00081 5.15436 5.42308 6.67345 5.07127 8.0889V8.10663C4.63901 10.069 4.63901 12.102 5.07127 14.0644V14.0807C5.32217 15.0898 6.1949 16.1507 7.20127 16.7916C7.52992 17.0058 7.88768 17.1716 8.26354 17.2839V18.863C8.26407 18.9892 8.30216 19.1124 8.37296 19.2168C8.44376 19.3213 8.54406 19.4023 8.66108 19.4496C8.7781 19.4968 8.90654 19.5081 9.03002 19.4821C9.15351 19.4561 9.26645 19.3939 9.35445 19.3034L10.9554 17.6398C11.3017 17.6589 11.6508 17.6698 11.9972 17.6698C13.1828 17.6694 14.3658 17.5571 15.5304 17.3344H15.5467C16.9963 17.018 18.5754 15.4989 18.9244 14.0834V14.0671C19.3594 12.1043 19.3617 10.0704 18.9313 8.10663ZM17.6644 13.7725C17.4299 14.6957 16.2326 15.8453 15.2794 16.0566C14.0414 16.2938 12.7814 16.3967 11.5213 16.3634C11.509 16.3627 11.4967 16.3648 11.4854 16.3695C11.474 16.3742 11.4639 16.3815 11.4558 16.3907L10.2872 17.5907L9.04354 18.8657C9.02364 18.8868 8.9979 18.9013 8.96963 18.9075C8.94136 18.9138 8.91187 18.9114 8.88498 18.9006C8.85809 18.8899 8.83505 18.8714 8.81883 18.8474C8.8026 18.8234 8.79395 18.7951 8.79399 18.7662V16.148C8.79402 16.1269 8.78667 16.1065 8.77322 16.0903C8.75977 16.0742 8.74106 16.0632 8.72036 16.0594C8.52154 16.0122 8.32987 15.9388 8.15036 15.8412C7.34036 15.4089 6.52354 14.5225 6.33536 13.7725C5.94557 11.9987 5.94557 10.1614 6.33536 8.38754C6.56854 7.46845 7.77263 6.32163 8.71899 6.1089C10.8862 5.69424 13.1123 5.69424 15.2794 6.1089C15.8044 6.22618 16.4044 6.62572 16.8735 7.11663C17.2594 7.51618 17.5554 7.97709 17.6644 8.39163C18.0536 10.1642 18.0536 12 17.6644 13.7725Z" fill="white"/>
<path d="M15.3135 13.9087C15.1363 14.313 14.8317 14.6483 14.4462 14.8633C14.3252 14.9146 14.1997 14.9543 14.0712 14.9819C13.9253 14.9383 13.7862 14.9083 13.6621 14.8551C12.6284 14.4529 11.6661 13.887 10.8121 13.1792C10.5584 12.9629 10.3201 12.7291 10.0989 12.4796C9.5527 11.8506 9.09401 11.1506 8.73529 10.3987C8.56074 10.0428 8.41347 9.67464 8.26347 9.30783C8.12711 8.97374 8.32893 8.62601 8.5362 8.37646C8.73909 8.14503 8.98864 7.95914 9.26847 7.83101C9.36694 7.78152 9.47963 7.76806 9.58698 7.79297C9.69433 7.81788 9.78958 7.87958 9.8562 7.96737C10.2046 8.35881 10.5117 8.78516 10.7726 9.23964C10.8547 9.3718 10.8829 9.53051 10.8511 9.68286C10.8194 9.83521 10.7302 9.96949 10.6021 10.0578C10.5339 10.1056 10.4657 10.1601 10.4071 10.2133C10.3493 10.2561 10.2995 10.3087 10.2598 10.3687C10.2256 10.4249 10.2049 10.4882 10.1992 10.5538C10.1936 10.6193 10.2031 10.6852 10.2271 10.7465C10.4903 11.4706 10.8898 12.0746 11.4871 12.4987C11.6892 12.6417 11.907 12.7611 12.1362 12.8546C12.2859 12.936 12.454 12.9774 12.6244 12.9746C12.9217 12.9392 13.0198 12.6106 13.2271 12.4415C13.3222 12.3636 13.44 12.3184 13.5628 12.3128C13.6857 12.3071 13.807 12.3413 13.9089 12.4101C14.1298 12.5465 14.3426 12.7006 14.5553 12.8506C14.7657 12.9942 14.9683 13.1489 15.1621 13.3142C15.2528 13.38 15.3175 13.4755 15.3452 13.5841C15.3728 13.6927 15.3616 13.8075 15.3135 13.9087Z" fill="white"/>
<path d="M12.3913 7.37426H12.2168C12.2727 7.37153 12.3313 7.37426 12.3913 7.37426Z" fill="white"/>
<path d="M15.409 11.461C15.2727 11.461 15.2059 11.345 15.1963 11.2182C15.1786 10.9687 15.1649 10.7178 15.1309 10.4696C15.0719 10.0509 14.9261 9.64908 14.7027 9.29005C14.4731 8.91602 14.1675 8.59435 13.8058 8.34584C13.444 8.09732 13.0342 7.92749 12.6027 7.84732C12.4063 7.81187 12.2059 7.80368 12.0081 7.78323C11.8827 7.76959 11.7177 7.76141 11.6904 7.60596C11.6863 7.57576 11.6887 7.54505 11.6975 7.51587C11.7062 7.48668 11.7211 7.4597 11.7411 7.43672C11.7611 7.41375 11.7858 7.39531 11.8135 7.38263C11.8412 7.36996 11.8713 7.36334 11.9018 7.36323C11.9345 7.36135 11.9672 7.36135 11.9999 7.36323C12.596 7.36827 13.1816 7.52024 13.7049 7.80567C14.2282 8.0911 14.673 8.50119 14.9999 8.99959C15.258 9.40132 15.4333 9.85057 15.5154 10.321C15.5672 10.6155 15.5863 10.9182 15.6095 11.2182C15.6141 11.2476 15.6125 11.2777 15.6047 11.3064C15.5968 11.3351 15.583 11.3618 15.564 11.3848C15.545 11.4077 15.5214 11.4264 15.4947 11.4395C15.468 11.4527 15.4388 11.46 15.409 11.461Z" fill="white"/>
<path d="M14.6711 10.8242C14.6704 10.8647 14.6649 10.905 14.6548 10.9442C14.6429 10.9836 14.6191 11.0184 14.5867 11.0438C14.5543 11.0693 14.5149 11.0841 14.4738 11.0864C14.4326 11.0886 14.3918 11.0781 14.3569 11.0563C14.3219 11.0346 14.2945 11.0025 14.2784 10.9646C14.2634 10.9096 14.2565 10.8526 14.258 10.7955C14.2611 10.4905 14.2008 10.1882 14.0807 9.90782C14.0534 9.84782 14.0234 9.78645 13.9893 9.72782C13.7941 9.39137 13.5044 9.11967 13.1561 8.94645C12.946 8.84725 12.7229 8.77838 12.4934 8.74191C12.3925 8.72554 12.2916 8.716 12.1907 8.70236C12.1644 8.70104 12.1387 8.69435 12.1151 8.6827C12.0916 8.67104 12.0706 8.65468 12.0536 8.63461C12.0366 8.61454 12.0239 8.5912 12.0163 8.56603C12.0087 8.54086 12.0063 8.5144 12.0093 8.48827C12.0093 8.46155 12.015 8.43513 12.026 8.41075C12.0369 8.38637 12.0529 8.36458 12.0728 8.34681C12.0928 8.32904 12.1163 8.31569 12.1418 8.30764C12.1672 8.29958 12.1941 8.29701 12.2207 8.30009C12.6211 8.31554 13.0133 8.41791 13.3702 8.60009C13.806 8.8194 14.1616 9.17061 14.3861 9.60372C14.5126 9.85662 14.5974 10.1283 14.6371 10.4083C14.6444 10.4448 14.6499 10.4816 14.6534 10.5187C14.6602 10.6005 14.663 10.6824 14.6698 10.7833C14.6698 10.7928 14.6711 10.8051 14.6711 10.8242Z" fill="white"/>
<path d="M13.7371 10.636C13.7293 10.6706 13.7115 10.7021 13.6857 10.7264C13.6599 10.7507 13.6275 10.7667 13.5925 10.7724H13.5625C13.5178 10.7753 13.4734 10.7636 13.436 10.739C13.3986 10.7143 13.3703 10.6782 13.3552 10.636C13.3468 10.6137 13.3413 10.5903 13.3389 10.5665C13.3317 10.4747 13.318 10.3836 13.298 10.2938C13.2574 10.1119 13.1541 9.95018 13.0061 9.83696C12.9346 9.7856 12.8548 9.74686 12.7702 9.72241C12.6625 9.69105 12.5493 9.69923 12.443 9.67332C12.3904 9.664 12.3437 9.63423 12.313 9.59053C12.2823 9.54682 12.2702 9.49275 12.2793 9.44014C12.2895 9.38974 12.3176 9.34478 12.3586 9.31365C12.3995 9.28253 12.4503 9.26738 12.5016 9.27105C13.1261 9.31605 13.5925 9.61605 13.7125 10.2856C13.7249 10.3478 13.7335 10.4106 13.7384 10.4738C13.7461 10.5276 13.7456 10.5823 13.7371 10.636Z" fill="white"/>
</svg>
